:SAMPLES-PER-SECOND 25
:FULLY-SPECIFIED
:DEGREES
713
root  5.89318 47.1663 -40.2548 158.695 -13.6788 167.231
RightUpLeg  -63.5546 -7.18531 -16.3845
RightLeg  66.6396 6.3676 15.2532
RightFoot  24.2063 -3.01561 9.9419
RightToes  2.84633e-005 7.89722e-005 -0.000426369
Spine  16.5854 -3.67029 7.38138
Spine1  32.9516 -10.0502 8.92606
HEad  16.6388 -30.2091 -11.8843
LeftShoulder1  -3.88251e-019 0 -3.92111e-022
LeftArm  -34.666 -20.2136 -68.8102
LeftForeArm  20.325 -19.0479 -1.28515
LeftHand  -1.13188 -5.97097 11.8585
RightShoulder  7.45443e-017 -2.42657e-020 1.96277e-018
RightArm  -31.4111 -7.41579 56.0816
RightForeArm  -33.8134 3.95813 0.122789
RightHand  0.545243 18.2895 2.16161
LeftUpLeg  -78.4051 -3.68875 -33.0732
LeftLeg  144 -12.3475 7.85071
LeftFoot  -42.4757 1.82955 5.62705
LeftToes  3.91355e-005 3.11907e-005 -4.10385e-006
714
root  6.0315 46.7061 -40.1097 158.939 -12.9793 164.418
RightUpLeg  -59.0729 -9.25814 -16.0627
RightLeg  54.8125 5.98791 8.69817
RightFoot  22.2379 -2.40306 8.47718
RightToes  2.84633e-005 7.89722e-005 -0.000426369
Spine  16.4905 -3.24272 5.75329
Spine1  32.9453 -9.01864 5.80405
HEad  16.1582 -29.0565 -10.6442
LeftShoulder1  -3.88251e-019 0 -3.92111e-022
LeftArm  -36.5035 -20.4495 -65.9017
LeftForeArm  23.5806 -24.1509 -3.86623
LeftHand  -1.05892 -5.52757 11.5409
RightShoulder  7.45443e-017 -2.42657e-020 1.96277e-018
RightArm  -31.2047 -8.28693 58.7192
RightForeArm  -32.3154 4.50868 1.13439
RightHand  0.149712 19.4971 0.219892
LeftUpLeg  -81.0549 -3.3604 -35.0915
LeftLeg  144.32 -12.8453 8.0734
LeftFoot  -40.7325 1.61029 5.19181
LeftToes  3.91355e-005 3.11907e-005 -4.10385e-006
715
root  6.22603 46.3088 -39.9981 159.309 -12.5448 162.373
RightUpLeg  -54.8171 -10.8687 -16.3658
RightLeg  45.6134 4.87315 4.9915
RightFoot  20.3904 -1.89669 7.16468
RightToes  2.84633e-005 7.89722e-005 -0.000426369
Spine  16.2985 -2.99444 4.59255
Spine1  32.7126 -8.43944 3.4294
HEad  15.6414 -27.8444 -9.27882
LeftShoulder1  -3.88251e-019 0 -3.92111e-022
LeftArm  -33.6089 -22.4893 -63.2703
LeftForeArm  21.5446 -26.9714 -4.65093
LeftHand  -1.0202 -4.95564 11.7178
RightShoulder  7.45443e-017 -2.42657e-020 1.96277e-018
RightArm  -30.9998 -8.72701 61.3942
RightForeArm  -31.0489 5.12396 1.25689
RightHand  -0.129056 20.0107 -1.08327
LeftUpLeg  -83.8198 -2.77563 -35.9915
LeftLeg  144.771 -12.4663 7.69552
LeftFoot  -39.2339 1.58218 5.40533
LeftToes  3.91355e-005 3.11907e-005 -4.10385e-006
716
root  6.45222 45.9849 -39.9587 159.683 -12.7069 160.78
RightUpLeg  -50.7585 -11.4596 -18.2961
RightLeg  40.0724 4.03103 3.33649
RightFoot  19.5956 -1.85353 7.18652
RightToes  2.84633e-005 7.89722e-005 -0.000426369
Spine  15.8663 -2.83428 3.45469
Spine1  32.008 -7.95457 1.10193
HEad  15.9318 -26.8156 -7.25757
LeftShoulder1  -3.88251e-019 0 -3.92111e-022
LeftArm  -29.6969 -25.1079 -60.9112
LeftForeArm  20.6777 -28.4529 -5.02525
LeftHand  -1.10892 -5.93136 11.6606
RightShoulder  7.45443e-017 -2.42657e-020 1.96277e-018
RightArm  -30.8419 -9.58325 63.6016
RightForeArm  -30.3228 5.58835 2.02978
RightHand  -0.491814 20.2145 -2.70576
LeftUpLeg  -86.078 -2.58368 -36.6723
LeftLeg  145.465 -12.156 7.29785
LeftFoot  -37.6414 1.55767 5.68327
LeftToes  3.91355e-005 3.11907e-005 -4.10385e-006
717
root  6.64947 45.781 -39.872 159.838 -13.429 159.05
RightUpLeg  -46.4411 -11.0175 -21.9439
RightLeg  37.3062 4.57256 3.45544
RightFoot  18.6751 -1.70543 6.83433
RightToes  2.84633e-005 7.89722e-005 -0.000426369
Spine  15.4508 -3.0436 2.60187
Spine1  31.3367 -8.15611 -0.769881
HEad  16.7186 -26.0942 -6.43774
LeftShoulder1  -3.88251e-019 0 -3.92111e-022
LeftArm  -25.8065 -28.6646 -59.8228
LeftForeArm  19.7608 -28.1611 -5.0091
LeftHand  -1.11195 -5.93981 11.6825
RightShoulder  7.45443e-017 -2.42657e-020 1.96277e-018
RightArm  -30.1908 -10.7074 65.3085
RightForeArm  -30.1586 6.21485 2.52883
RightHand  -0.740946 20.3544 -3.80681
LeftUpLeg  -87.2052 -2.77173 -37.2058
LeftLeg  145.549 -11.2836 6.73733
LeftFoot  -36.8336 1.25078 4.53973
LeftToes  3.91355e-005 3.11907e-005 -4.10385e-006
718
root  6.86788 45.6437 -39.8398 159.656 -14.4754 157.77
RightUpLeg  -42.2647 -10.1198 -25.415
RightLeg  37.529 4.85027 3.70631
RightFoot  17.0101 -1.10052 4.82296
RightToes  2.84633e-005 7.89722e-005 -0.000426369
Spine  15.2047 -3.3974 1.99246
Spine1  30.9961 -8.53564 -2.08223
HEad  16.8563 -25.5454 -5.7991
LeftShoulder1  -3.88251e-019 0 -3.92111e-022
LeftArm  -25.1539 -32.5112 -61.4129
LeftForeArm  21.0399 -27.6949 -4.83291
LeftHand  -1.19408 -6.02129 12.426
RightShoulder  7.45443e-017 -2.42657e-020 1.96277e-018
RightArm  -29.6357 -11.6082 66.462
RightForeArm  -30.0899 6.65315 3.04904
RightHand  -0.941107 20.1616 -4.73479
LeftUpLeg  -87.2957 -3.17003 -37.0363
LeftLeg  145.71 -10.0433 5.93094
LeftFoot  -36.6099 0.923616 3.12846
LeftToes  3.91355e-005 3.11907e-005 -4.10385e-006
719
root  7.13275 45.5518 -39.8803 159.47 -16.2712 157.108
RightUpLeg  -38.4915 -9.83394 -28.016
RightLeg  40.3578 4.97802 4.21607
RightFoot  17.2691 -0.969651 4.27704
RightToes  2.84633e-005 7.89722e-005 -0.000426369
Spine  15.0976 -3.94548 1.80948
Spine1  30.9105 -9.32385 -2.57253
HEad  16.4635 -25.254 -5.06733
LeftShoulder1  -3.88251e-019 0 -3.92111e-022
LeftArm  -24.1883 -37.0423 -65.3782
LeftForeArm  22.4425 -28.2839 -4.88975
LeftHand  -1.30964 -4.72793 15.2924
RightShoulder  7.45443e-017 -2.42657e-020 1.96277e-018
RightArm  -29.0046 -13.2294 66.8472
RightForeArm  -29.6797 8.95814 4.49744
RightHand  -1.195 19.8926 -5.92975
LeftUpLeg  -86.8292 -3.70367 -36.338
LeftLeg  145.953 -8.26308 4.78081
LeftFoot  -36.7667 0.596999 1.66041
LeftToes  3.91355e-005 3.11907e-005 -4.10385e-006
720
root  7.46523 45.4518 -39.934 159.668 -18.1044 156.335
RightUpLeg  -36.3208 -9.89355 -29.7596
RightLeg  45.531 6.26036 6.47299
RightFoot  19.6834 -1.43903 5.67473
RightToes  2.84633e-005 7.89722e-005 -0.000426369
Spine  14.8214 -4.4821 1.41628
Spine1  30.524 -10.1107 -3.44739
HEad  16.1774 -24.9799 -3.3057
LeftShoulder1  -3.88251e-019 0 -3.92111e-022
LeftArm  -18.76 -41.6866 -68.5037
LeftForeArm  23.1526 -29.5667 -5.14546
LeftHand  -1.33161 -4.36819 16.0312
RightShoulder  7.45443e-017 -2.42657e-020 1.96277e-018
RightArm  -29.0569 -14.6841 67.4474
RightForeArm  -28.7375 10.8024 6.26626
RightHand  -1.75354 20.1327 -8.38555
LeftUpLeg  -86.9528 -3.52969 -35.33
LeftLeg  146.219 -5.5819 3.08348
LeftFoot  -37.086 0.215765 -0.0384438
LeftToes  3.91355e-005 3.11907e-005 -4.10385e-006
